<?xml version="1.0" standalone="no"?>
<!DOCTYPE svg PUBLIC "-//W3C//DTD SVG 20010904//EN"
 "http://www.w3.org/TR/2001/REC-SVG-20010904/DTD/svg10.dtd">
<svg version="1.0" xmlns="http://www.w3.org/2000/svg"
 width="377.000000pt" height="390.000000pt" viewBox="0 0 377.000000 390.000000"
 preserveAspectRatio="xMidYMid meet">
<metadata>
Created by potrace 1.15, written by Peter Selinger 2001-2017
</metadata>
<g transform="translate(0.000000,390.000000) scale(0.100000,-0.100000)"
fill="#000000" stroke="none">
<path d="M1426 3733 c-184 -33 -447 -139 -583 -234 -181 -128 -346 -292 -453
-450 -99 -145 -205 -405 -241 -594 -19 -94 -19 -454 0 -555 35 -197 124 -421
231 -585 59 -89 141 -195 153 -195 4 0 7 403 7 895 l0 895 80 0 79 0 3 -147 3
-148 155 0 155 0 3 148 3 147 74 0 75 0 0 -380 0 -380 -75 0 -75 0 -2 167 -3
167 -154 -2 c-85 -1 -155 -3 -156 -4 -1 -2 4 -349 11 -773 l12 -770 34 -28
c18 -16 80 -57 138 -92 233 -140 473 -211 758 -222 78 -3 142 -3 142 1 0 3
-10 23 -23 44 -140 227 -175 570 -86 834 86 256 268 468 505 586 44 22 106 48
137 57 31 9 57 21 57 26 0 5 -28 9 -63 9 l-63 0 -74 295 c-40 162 -75 293 -78
290 -3 -2 -4 -135 -3 -295 l2 -290 -70 0 -71 0 0 380 0 380 113 0 114 0 57
-217 c77 -289 78 -293 86 -293 6 0 27 75 100 360 l37 145 116 3 117 3 0 -374
0 -374 49 -7 c146 -19 362 -106 441 -176 35 -31 35 -31 -15 3 -167 115 -396
177 -600 164 -558 -37 -971 -541 -905 -1102 47 -398 334 -731 722 -837 71 -20
107 -23 248 -23 145 0 175 3 245 24 351 106 602 362 697 711 31 115 33 356 4
470 -44 174 -131 331 -254 462 -65 69 -68 75 -59 103 5 17 10 113 10 215 0
196 -15 306 -63 465 -127 412 -421 759 -807 954 -106 53 -323 126 -437 146
-115 20 -447 19 -560 -2z m15 -866 c6 -23 32 -123 59 -222 26 -99 51 -195 55
-212 4 -18 11 -33 16 -33 5 0 9 2 9 5 0 11 130 499 134 502 3 4 150 6 214 3 9
0 12 -83 12 -380 l0 -380 -70 0 -70 0 -1 293 -1 292 -18 -59 c-10 -32 -45
-164 -76 -292 l-58 -234 -75 0 -76 0 -69 283 c-38 155 -73 289 -78 297 -9 19
-9 46 -8 -297 l1 -283 -71 0 -70 0 0 383 0 382 115 -3 115 -3 11 -42z m1402
-773 c471 -101 793 -554 737 -1036 -75 -648 -746 -1031 -1328 -758 -365 171
-579 550 -541 960 5 57 21 134 40 192 l30 96 59 -33 c33 -18 67 -35 77 -37 10
-2 16 -11 14 -19 -2 -8 -11 -40 -20 -71 -15 -57 -24 -66 -48 -50 -9 6 -10 17
-4 38 4 16 4 39 0 52 -10 26 -51 47 -74 38 -17 -6 -42 -57 -51 -105 -6 -27 -4
-28 68 -46 89 -21 87 -20 81 -45 -5 -18 -14 -20 -85 -20 -76 0 -79 -1 -76 -22
2 -18 16 -27 73 -44 42 -13 64 -24 55 -28 -8 -3 -40 -14 -70 -24 -45 -16 -55
-23 -55 -42 0 -22 2 -23 78 -21 64 2 78 0 84 -14 8 -22 -4 -29 -82 -44 -53
-11 -65 -17 -65 -32 0 -23 -2 -23 87 0 70 18 71 18 76 -1 5 -16 -7 -25 -69
-53 -55 -25 -72 -38 -68 -49 5 -14 9 -14 34 -1 40 21 43 20 61 -24 l16 -39
-35 -16 c-25 -12 -32 -20 -24 -28 8 -8 28 -4 72 15 34 15 65 27 70 27 19 0 30
-38 19 -62 -8 -20 -16 -23 -45 -20 -40 5 -42 -3 -12 -35 18 -20 20 -26 9 -49
-15 -35 -8 -41 25 -19 25 16 27 16 56 -12 l31 -28 -6 42 c-6 51 11 62 41 28
l21 -24 -50 -56 c-46 -53 -61 -85 -40 -85 5 0 28 21 51 47 l41 48 -22 -55
c-11 -30 -23 -60 -26 -66 -11 -28 22 -23 79 11 62 37 63 31 4 -33 -23 -24 -27
-35 -18 -44 11 -11 34 11 111 103 11 13 20 16 31 9 12 -7 4 -19 -40 -59 -30
-28 -58 -50 -62 -51 -5 0 -8 -7 -8 -15 0 -21 24 -19 45 5 18 20 18 20 48 1 24
-15 31 -27 31 -53 1 -22 6 -33 16 -33 16 0 16 -1 25 97 7 68 10 74 32 60 10
-6 8 -26 -9 -86 -15 -56 -18 -80 -10 -88 13 -13 24 10 43 82 l11 45 27 -80
c35 -109 50 -109 80 0 13 47 25 85 26 85 2 0 10 -3 19 -6 12 -5 9 -18 -20 -81
-19 -42 -34 -79 -34 -84 0 -19 31 -7 40 15 5 13 13 27 18 30 15 9 72 -5 72
-18 0 -20 26 -49 38 -42 7 4 3 29 -14 78 -33 99 -33 98 30 98 l54 0 7 -66 c5
-51 4 -69 -7 -75 -8 -6 -18 -1 -29 13 -22 29 -42 16 -27 -17 11 -25 23 -29 63
-25 30 3 36 19 33 82 -2 31 0 54 3 52 3 -2 14 -31 23 -64 9 -33 20 -60 23 -60
27 0 126 36 130 47 9 23 -1 24 -56 7 -59 -17 -56 -18 -65 13 -6 19 -2 24 35
34 37 12 59 32 47 45 -3 2 -24 -3 -48 -11 -35 -12 -45 -13 -52 -3 -15 25 -8
34 41 50 l49 16 13 -27 c30 -58 71 -121 80 -121 15 0 10 25 -16 75 l-26 47 41
-32 c22 -17 42 -36 45 -41 4 -5 13 -9 22 -9 13 0 14 9 8 57 -4 31 -9 63 -12
72 -3 9 9 -8 26 -37 17 -28 38 -52 46 -52 21 0 19 5 -15 69 l-31 56 45 -49 45
-49 56 47 c51 44 62 66 32 66 -6 0 -27 -16 -47 -35 l-36 -36 -19 21 c-19 21
-19 22 20 56 31 26 37 36 27 46 -9 9 -19 5 -47 -22 -29 -28 -37 -31 -50 -20
-22 18 -20 23 26 59 l40 33 61 -47 c39 -31 65 -44 76 -40 14 5 12 11 -13 33
-17 15 -41 35 -55 45 -25 17 -24 17 59 15 56 -2 85 1 88 9 2 6 -23 32 -57 58
l-60 46 34 62 35 62 88 9 c77 8 102 16 103 36 0 3 -31 30 -70 60 -51 40 -70
61 -70 78 0 18 4 22 18 18 167 -52 170 -52 159 -23 -3 8 -33 20 -68 27 -68 15
-66 18 24 41 40 10 47 15 45 33 -2 16 -16 23 -60 34 -32 8 -58 17 -58 21 0 4
27 13 60 19 32 7 62 17 65 22 12 20 -24 21 -99 2 -42 -11 -76 -16 -76 -12 0 4
-3 21 -6 38 -5 27 -4 29 17 25 37 -7 58 16 64 72 7 57 9 60 30 52 18 -8 20
-40 3 -67 -15 -24 -3 -38 20 -24 24 15 28 81 7 104 -44 49 -87 26 -95 -51 -6
-60 -25 -72 -47 -30 -10 21 -9 30 5 53 19 32 9 47 -19 30 -16 -10 -20 -10 -26
4 -7 19 5 28 79 55 63 24 90 45 66 54 -8 3 -47 -8 -88 -25 -70 -29 -76 -30
-87 -13 -11 15 -9 18 17 29 39 17 45 34 31 91 -14 53 -3 75 25 53 11 -10 14
-24 11 -47 -7 -39 10 -54 30 -28 19 28 16 50 -13 85 -53 62 -116 18 -88 -62
16 -45 12 -58 -17 -58 -27 0 -47 45 -32 70 7 10 9 21 6 24 -13 12 -30 5 -40
-16 -7 -17 -11 -18 -15 -7 -3 8 9 55 28 104 44 119 38 125 -70 74 -46 -21 -89
-39 -96 -39 -6 0 8 36 31 80 31 58 40 83 32 91 -8 8 -16 3 -29 -17 -10 -16
-19 -30 -20 -32 -2 -3 -63 25 -72 33 -2 2 4 17 12 34 20 38 20 41 -2 41 -11 0
-29 -23 -52 -67 -19 -36 -39 -67 -45 -67 -5 -1 -13 24 -17 54 -4 30 -10 74
-13 97 -10 67 -29 62 -93 -27 -31 -44 -60 -80 -64 -80 -5 0 -8 41 -8 91 0 87
-1 90 -22 87 -16 -2 -26 -17 -40 -58 -10 -30 -22 -58 -26 -62 -5 -5 -18 23
-29 61 -18 63 -19 70 -4 74 29 6 145 -4 214 -19z m-275 -69 c-2 -47 -6 -87 -9
-89 -2 -3 -28 -8 -56 -12 l-52 -6 -22 76 c-17 59 -26 76 -41 76 -22 0 -22 5 2
-65 11 -32 20 -60 20 -62 0 -6 -115 88 -118 97 -6 15 182 68 247 69 l34 1 -5
-85z"/>
<path d="M2560 2738 c0 -2 -33 -135 -74 -296 -40 -161 -71 -294 -67 -296 3 -2
39 1 79 7 l72 10 0 288 c0 159 -2 289 -5 289 -3 0 -5 -1 -5 -2z"/>
</g>
</svg>
